HIERARCHY
ROOT Hips
{
	OFFSET -0.001795 -0.223333 0.028219
	CHANNELS 6 Xposition Yposition Zposition Zrotation Yrotation Xrotation 
	JOINT LeftUpLeg
	{
		OFFSET 0.069520 -0.091406 -0.006815
		CHANNELS 3 Zrotation Yrotation Xrotation
		JOINT LeftLeg
		{
			OFFSET 0.034277 -0.375199 -0.004496
			CHANNELS 3 Zrotation Yrotation Xrotation
			JOINT LeftFoot
			{
				OFFSET -0.013596 -0.397961 -0.043693
				CHANNELS 3 Zrotation Yrotation Xrotation
				JOINT LeftToe
				{
					OFFSET 0.026358 -0.055791 0.119288
					CHANNELS 3 Zrotation Yrotation Xrotation
					End Site
					{
						OFFSET 0.000000 0.000000 0.000000
					}
				}
			}
		}
	}
	JOINT RightUpLeg
	{
		OFFSET -0.067670 -0.090522 -0.004320
		CHANNELS 3 Zrotation Yrotation Xrotation
		JOINT RightLeg
		{
			OFFSET -0.038290 -0.382569 -0.008850
			CHANNELS 3 Zrotation Yrotation Xrotation
			JOINT RightFoot
			{
				OFFSET 0.015774 -0.398415 -0.042312
				CHANNELS 3 Zrotation Yrotation Xrotation
				JOINT RightToe
				{
					OFFSET -0.025372 -0.048144 0.123348
					CHANNELS 3 Zrotation Yrotation Xrotation
					End Site
					{
						OFFSET 0.000000 0.000000 0.000000
					}
				}
			}
		}
	}
	JOINT Spine
	{
		OFFSET -0.002533 0.108963 -0.026696
		CHANNELS 3 Zrotation Yrotation Xrotation
		JOINT Spine1
		{
			OFFSET 0.005487 0.135180 0.001092
			CHANNELS 3 Zrotation Yrotation Xrotation
			JOINT Spine2
			{
				OFFSET 0.001457 0.052922 0.025425
				CHANNELS 3 Zrotation Yrotation Xrotation
				JOINT Neck
				{
					OFFSET -0.002778 0.213870 -0.042857
					CHANNELS 3 Zrotation Yrotation Xrotation
					JOINT Head
					{
						OFFSET 0.005152 0.064970 0.051349
						CHANNELS 3 Zrotation Yrotation Xrotation
						End Site
						{
							OFFSET 0.000000 0.000000 0.000000
						}
					}
				}
				JOINT LeftShoulder
				{
					OFFSET 0.078845 0.121749 -0.034090
					CHANNELS 3 Zrotation Yrotation Xrotation
					JOINT LeftArm
					{
						OFFSET 0.090977 0.030469 -0.008868
						CHANNELS 3 Zrotation Yrotation Xrotation
						JOINT LeftForeArm
						{
							OFFSET 0.259612 -0.012772 -0.027456
							CHANNELS 3 Zrotation Yrotation Xrotation
							JOINT LeftHand
							{
								OFFSET 0.249234 0.008986 -0.001171
								CHANNELS 3 Zrotation Yrotation Xrotation
								End Site
								{
									OFFSET 0.000000 0.000000 0.000000
								}
							}
						}
					}
				}
				JOINT RightShoulder
				{
					OFFSET -0.081759 0.118833 -0.038615
					CHANNELS 3 Zrotation Yrotation Xrotation
					JOINT RightArm
					{
						OFFSET -0.096012 0.032551 -0.009143
						CHANNELS 3 Zrotation Yrotation Xrotation
						JOINT RightForeArm
						{
							OFFSET -0.253742 -0.013329 -0.021401
							CHANNELS 3 Zrotation Yrotation Xrotation
							JOINT RightHand
							{
								OFFSET -0.255298 0.007772 -0.005559
								CHANNELS 3 Zrotation Yrotation Xrotation
								End Site
								{
									OFFSET 0.000000 0.000000 0.000000
								}
							}
						}
					}
				}
			}
		}
	}
}
MOTION
Frames: 18
Frame Time: 0.050000
0.000000 0.942378 0.000000 1.462297 28.297968 18.142846 4.642828 -0.614968 -3.794687 -2.499191 0.048518 -6.180974 13.817993 25.659207 18.404330 0.000000 0.000000 0.000000 -1.137440 0.820351 -18.796277 -5.212183 0.659169 -0.549073 1.448467 1.138126 18.013657 0.000000 0.000000 0.000000 5.309152 -0.298296 -2.428199 6.981862 -2.601348 -4.562806 -7.583872 -8.817480 1.440591 7.580038 -3.867120 -8.770790 0.000000 0.000000 0.000000 -2.124331 -22.163402 7.422056 -21.301859 -57.612718 5.601395 15.262289 -21.731852 -2.261236 0.000000 0.000000 0.000000 12.096037 5.484698 2.794434 52.343915 23.540141 5.794809 26.806376 59.381582 19.901547 0.000000 0.000000 0.000000 
0.001085 0.942808 0.000940 1.418387 30.263051 18.988546 3.930649 -0.636677 -5.046076 -0.109451 0.050050 -7.555741 13.832158 25.853464 21.359271 0.000000 0.000000 0.000000 -1.814705 0.658622 -18.340041 -3.647676 0.369544 -2.352161 0.595517 -0.064325 18.900461 0.000000 0.000000 0.000000 6.273772 -0.303272 -4.201138 6.815134 -2.605860 -4.065552 -8.406826 -9.002610 1.421480 11.280738 -6.687103 -7.485496 0.000000 0.000000 0.000000 -2.434314 -21.921703 7.270605 -21.054761 -57.360999 5.356312 15.423714 -22.476194 -2.407150 0.000000 0.000000 0.000000 11.292534 3.447627 1.856553 52.615264 22.817127 5.632353 28.279522 59.423087 21.097933 0.000000 0.000000 0.000000 
0.001939 0.942920 0.001596 0.528316 30.201103 17.651477 4.474791 -0.662821 -4.820506 1.193587 0.074117 -6.453434 12.998087 25.092802 22.145878 0.000000 0.000000 0.000000 -0.718367 0.858479 -17.563228 -4.144979 0.455512 -1.917638 0.674553 0.044297 18.880820 0.000000 0.000000 0.000000 8.023942 -0.448794 -3.545529 5.775414 -2.003874 -4.904212 -8.797332 -7.284344 0.982562 10.888811 -7.176893 -4.411884 0.000000 0.000000 0.000000 -2.510672 -22.902052 7.477270 -21.174947 -56.291021 5.077902 13.490604 -24.657585 -2.294274 0.000000 0.000000 0.000000 11.899749 2.284808 1.561269 50.658716 20.750474 4.423989 32.205531 58.894313 23.661182 0.000000 0.000000 0.000000 
0.002771 0.943240 0.002002 0.712126 30.941626 18.045954 4.212781 -0.660758 -5.079724 1.804693 0.069520 -6.129389 11.609285 23.672810 20.509201 0.000000 0.000000 0.000000 -1.560645 0.708869 -17.520152 -2.874983 0.286845 -2.299694 0.353483 -0.414492 19.186479 0.000000 0.000000 0.000000 8.854108 -0.472751 -4.368312 5.136010 -1.863367 -4.083535 -9.124903 -5.614291 0.262826 13.326744 -8.336842 -6.237617 0.000000 0.000000 0.000000 -2.019446 -23.432328 7.478149 -19.841532 -56.316089 4.235519 11.329475 -25.360510 -1.934143 0.000000 0.000000 0.000000 9.856532 1.054206 1.075184 53.041409 20.140421 4.905021 29.120428 57.905580 21.805610 0.000000 0.000000 0.000000 
0.003289 0.943473 0.002084 0.942402 31.292005 17.906644 4.684119 -0.696531 -4.999597 1.114913 0.064018 -5.710484 10.637781 22.655166 19.900600 0.000000 0.000000 0.000000 -1.747259 0.649546 -17.877685 -2.881396 0.357399 -1.004152 0.129524 -0.700810 18.889976 0.000000 0.000000 0.000000 8.797671 -0.447970 -4.620502 4.979534 -1.722884 -4.527379 -9.302748 -5.323459 1.120552 13.907328 -8.825658 -6.195573 0.000000 0.000000 0.000000 -2.442349 -24.161174 7.689579 -19.232366 -54.554424 3.697498 10.878266 -28.472645 -2.133095 0.000000 0.000000 0.000000 10.677456 0.187883 0.797463 51.433083 20.420932 4.583470 25.049927 56.633714 19.053346 0.000000 0.000000 0.000000 
0.003533 0.944203 0.002247 0.903109 31.235759 18.315231 5.209298 -0.764395 -5.331657 0.958118 0.063189 -5.564783 9.162203 21.132514 19.411423 0.000000 0.000000 0.000000 -1.823624 0.610485 -18.648079 -2.699313 0.357381 -0.462256 0.207521 -0.615289 19.186911 0.000000 0.000000 0.000000 8.608092 -0.420719 -4.941965 5.359525 -1.944892 -4.175037 -9.393059 -4.440880 0.686750 14.579786 -9.088617 -6.767077 0.000000 0.000000 0.000000 -2.209613 -22.910757 7.147828 -21.104500 -53.387363 4.289247 10.710167 -32.226605 -2.545507 0.000000 0.000000 0.000000 10.351444 0.391296 0.989350 50.495564 20.727135 4.637386 18.993101 55.509702 15.349931 0.000000 0.000000 0.000000 
0.003799 0.944636 0.002916 0.822868 30.834217 18.246260 4.939402 -0.739216 -5.377880 0.963724 0.063058 -5.309316 10.096457 22.128497 19.776173 0.000000 0.000000 0.000000 -1.999578 0.583190 -18.802637 -2.299663 0.313182 -0.165147 0.442023 -0.326028 19.295865 0.000000 0.000000 0.000000 8.404568 -0.388233 -5.077744 5.357205 -1.955056 -4.120694 -9.433188 -3.990588 0.415194 15.471874 -9.321339 -7.937248 0.000000 0.000000 0.000000 -2.728334 -22.208251 6.835768 -23.730080 -50.301000 5.011809 8.443977 -38.483597 -2.502722 0.000000 0.000000 0.000000 10.587085 -0.110048 0.798483 49.303805 21.162597 4.601107 15.959436 53.670984 13.150707 0.000000 0.000000 0.000000 
0.004275 0.945176 0.004056 0.326814 30.790379 17.868088 5.046112 -0.734320 -5.127652 1.228105 0.063646 -5.455816 10.827755 22.884441 20.223727 0.000000 0.000000 0.000000 -1.816550 0.630313 -18.573456 -1.781749 0.237057 -0.222583 0.555778 -0.212528 19.637326 0.000000 0.000000 0.000000 8.688669 -0.407286 -4.983580 5.357476 -1.885826 -4.533670 -9.597518 -3.612537 0.238868 16.106339 -9.472132 -8.734251 0.000000 0.000000 0.000000 -3.937124 -21.427215 6.448059 -27.354378 -47.852403 6.058266 6.665838 -43.250501 -2.365894 0.000000 0.000000 0.000000 10.508742 -0.375491 0.702885 48.201343 20.219485 4.039170 12.955150 52.783346 11.385129 0.000000 0.000000 0.000000 
0.004850 0.945643 0.005200 0.009697 30.884682 17.569018 4.935466 -0.696481 -4.588276 1.462365 0.068310 -6.032833 11.605168 23.631615 20.437857 0.000000 0.000000 0.000000 -1.743263 0.654907 -18.076317 -1.354363 0.160082 -0.685474 0.584959 -0.198650 19.967316 0.000000 0.000000 0.000000 8.584867 -0.382529 -5.130512 5.857414 -2.096791 -4.554996 -10.345294 -3.151236 0.135288 16.584672 -9.428731 -9.720262 0.000000 0.000000 0.000000 -4.014076 -20.122948 5.873404 -31.111224 -46.330359 7.016862 4.715689 -47.941385 -2.121640 0.000000 0.000000 0.000000 10.555245 -1.485375 0.230248 48.136346 19.795757 3.902426 11.602198 51.207927 10.389748 0.000000 0.000000 0.000000 
0.005336 0.945489 0.005772 -0.018234 31.192805 17.407381 4.843898 -0.668763 -4.171439 1.267328 0.068766 -6.643713 12.415761 24.396137 20.658438 0.000000 0.000000 0.000000 -1.944097 0.624169 -17.510449 -0.906444 0.077815 -1.246473 0.453385 -0.368316 20.032827 0.000000 0.000000 0.000000 8.765975 -0.384409 -5.253794 5.369391 -1.812366 -5.000358 -10.501939 -3.320553 0.681325 17.457057 -9.641926 -10.906247 0.000000 0.000000 0.000000 -4.541440 -20.389868 5.926650 -32.663265 -45.702381 7.395429 6.591973 -51.371235 -3.337068 0.000000 0.000000 0.000000 10.300617 -2.167219 -0.122428 48.721717 19.019154 3.679948 12.250516 51.242578 10.763834 0.000000 0.000000 0.000000 
0.005470 0.945727 0.005363 -0.065509 31.809340 17.080488 5.059698 -0.671912 -3.697241 0.985708 0.059036 -7.424603 12.700450 24.662167 21.134618 0.000000 0.000000 0.000000 -1.901183 0.631506 -16.734220 -0.831777 0.044403 -1.926878 0.180171 -0.725062 20.264453 0.000000 0.000000 0.000000 8.425706 -0.357766 -5.293157 5.855927 -2.039833 -4.852241 -10.973711 -3.940067 0.628333 17.323446 -9.412781 -11.278097 0.000000 0.000000 0.000000 -4.963357 -20.262575 5.871422 -32.977838 -47.642012 8.017655 10.837805 -50.084488 -5.128205 0.000000 0.000000 0.000000 10.490188 -2.436606 -0.280138 49.348909 18.289068 3.476920 13.190815 51.516564 11.254010 0.000000 0.000000 0.000000 
0.004944 0.945323 0.004214 0.027693 32.114878 17.000905 5.197660 -0.681177 -3.525432 0.546401 0.038519 -8.161917 13.287838 25.237890 21.954962 0.000000 0.000000 0.000000 -1.903818 0.635646 -16.175155 -0.951269 0.028773 -2.741211 0.019086 -0.924458 20.274343 0.000000 0.000000 0.000000 8.176842 -0.347092 -5.204253 5.968812 -2.087921 -4.845547 -11.026686 -4.955368 0.791445 16.829578 -9.129950 -11.225223 0.000000 0.000000 0.000000 -4.770558 -21.055703 6.289157 -30.560960 -50.154478 7.761892 17.003181 -46.717860 -7.193299 0.000000 0.000000 0.000000 10.917585 -2.299583 -0.296565 50.223414 17.614280 3.269730 15.494975 51.698712 12.272036 0.000000 0.000000 0.000000 
0.004084 0.945350 0.002749 0.155467 32.276734 17.039973 5.017031 -0.664573 -3.559262 0.684156 0.032870 -8.657416 13.583897 25.550397 22.754710 0.000000 0.000000 0.000000 -1.934195 0.635279 -15.911518 -1.093164 0.021251 -3.313928 -0.053086 -1.025403 20.409795 0.000000 0.000000 0.000000 8.120112 -0.376845 -4.730336 6.223294 -2.179972 -4.934944 -11.140049 -6.168757 0.651375 16.039141 -8.829728 -10.589935 0.000000 0.000000 0.000000 -3.707817 -21.940370 6.806351 -26.477987 -53.980720 6.918548 21.503722 -39.500197 -7.328484 0.000000 0.000000 0.000000 10.680968 -1.815072 -0.220348 51.867801 16.803063 3.184701 18.291169 52.982808 13.870936 0.000000 0.000000 0.000000 
0.003370 0.945196 0.001352 0.101607 31.771781 17.095866 4.975192 -0.658408 -3.571215 0.657098 0.034685 -8.910154 13.938668 25.898258 23.235535 0.000000 0.000000 0.000000 -1.800498 0.684986 -15.707743 -1.364655 0.008379 -4.157385 0.227597 -0.690977 20.586796 0.000000 0.000000 0.000000 8.179293 -0.404259 -4.380407 6.136802 -2.110416 -5.139107 -10.729370 -7.256712 0.464115 15.170353 -8.436339 -10.080543 0.000000 0.000000 0.000000 -2.691816 -22.995715 7.376848 -21.109696 -57.186238 5.124895 23.066627 -31.863208 -6.024752 0.000000 0.000000 0.000000 10.896510 -0.969351 0.010777 52.346508 16.484090 3.066180 20.473475 53.986037 15.021075 0.000000 0.000000 0.000000 
0.003047 0.945243 0.000007 0.235305 30.896975 17.345100 4.917263 -0.651252 -3.649970 0.481079 0.038148 -9.067053 13.876369 25.891393 23.846791 0.000000 0.000000 0.000000 -1.825022 0.705478 -16.047052 -1.756833 0.042377 -4.276177 0.650181 -0.169905 20.604517 0.000000 0.000000 0.000000 8.412361 -0.445811 -4.032647 6.130951 -2.082514 -5.326292 -10.431325 -7.924188 0.351475 14.244283 -8.027865 -9.456633 0.000000 0.000000 0.000000 -0.823718 -23.861141 7.789481 -14.323966 -60.040903 2.122279 22.901550 -24.486780 -4.374956 0.000000 0.000000 0.000000 10.165913 -0.303653 0.153839 53.094644 16.113485 3.029001 22.978102 55.619576 16.706611 0.000000 0.000000 0.000000 
0.003145 0.945400 -0.001204 -0.009197 29.580733 17.455198 4.784010 -0.637180 -3.778324 0.867417 0.066528 -9.048009 14.046279 26.091912 24.739640 0.000000 0.000000 0.000000 -1.559139 0.783792 -16.644436 -2.131286 0.086983 -4.126637 1.332509 0.659412 20.725625 0.000000 0.000000 0.000000 8.814524 -0.513602 -3.534546 6.254396 -2.071638 -5.770334 -10.090170 -8.334120 0.380902 13.275577 -7.510983 -9.087101 0.000000 0.000000 0.000000 0.087807 -24.663437 8.145768 -8.096156 -61.138005 -0.924248 23.296142 -19.200510 -3.376601 0.000000 0.000000 0.000000 9.641184 0.686792 0.474334 53.749996 16.745248 3.381989 22.043553 57.819364 16.742788 0.000000 0.000000 0.000000 
0.003263 0.945516 -0.002302 -0.010454 28.235920 17.759330 4.523346 -0.600076 -3.626084 0.805379 0.078991 -9.209744 14.101043 26.145817 24.570051 0.000000 0.000000 0.000000 -1.386912 0.847134 -17.404058 -1.862252 0.071027 -3.826909 0.299865 -1.217042 20.581492 0.000000 0.000000 0.000000 8.850035 -0.536366 -3.253236 6.671999 -2.298101 -5.526472 -9.906786 -8.285401 -0.214489 12.473950 -7.101784 -8.565579 0.000000 0.000000 0.000000 1.206912 -25.244303 8.343843 -2.657582 -61.517573 -3.690957 23.241745 -15.439252 -2.642012 0.000000 0.000000 0.000000 9.090878 1.314113 0.666572 54.146799 18.142688 4.143668 18.962987 60.247734 15.616027 0.000000 0.000000 0.000000 
0.003126 0.945693 -0.003101 -0.075044 26.959203 17.956603 4.206333 -0.562068 -3.535458 1.165080 0.102477 -9.157425 13.874988 25.943473 24.475728 0.000000 0.000000 0.000000 -1.186948 0.919175 -18.151564 -1.620812 0.047606 -3.694820 -0.496008 -2.851805 21.373171 0.000000 0.000000 0.000000 9.224640 -0.588864 -3.007942 6.764123 -2.392456 -5.233744 -9.510758 -8.672882 -0.674328 11.154902 -6.463675 -7.625871 0.000000 0.000000 0.000000 1.398227 -25.189367 8.401018 2.032761 -60.962052 -5.847235 23.498496 -13.382695 -2.261919 0.000000 0.000000 0.000000 8.254956 1.994565 0.819166 54.474350 20.127542 5.176077 15.023330 62.711884 13.663072 0.000000 0.000000 0.000000 
